<svg width="53" height="52" viewBox="0 0 53 52" fill="none" xmlns="http://www.w3.org/2000/svg">
<rect x="0.349854" width="52" height="52" rx="26" fill="#8F8FA7" fill-opacity="0.1"/>
<path d="M27.2164 15.6347V16.291C27.2164 16.677 27.3875 17.0421 27.6844 17.2894L28.9186 18.3179C29.4293 18.7443 29.5368 19.485 29.1682 20.0396L28.5788 20.9248C28.2579 21.4058 27.7858 21.766 27.2372 21.9486L27.072 22.0041C26.8855 22.0664 26.716 22.1709 26.5764 22.3094C26.4369 22.4479 26.3312 22.6167 26.2675 22.8027C26.2037 22.9887 26.1838 23.1869 26.2091 23.3819C26.2344 23.5768 26.3043 23.7634 26.4133 23.9269C26.8397 24.5683 26.6086 25.4372 25.9199 25.7816L22.8831 27.3L23.3719 28.5237C23.4705 28.7723 23.4756 29.0481 23.3862 29.3002C23.2969 29.5522 23.1192 29.7632 22.8861 29.8942C22.6529 30.0251 22.3802 30.0671 22.1185 30.0123C21.8568 29.9575 21.6239 29.8096 21.4629 29.5961L20.6783 28.5492C20.5453 28.372 20.3693 28.2317 20.1668 28.1416C19.9644 28.0516 19.7423 28.0148 19.5217 28.0347C19.301 28.0546 19.0891 28.1306 18.9061 28.2554C18.723 28.3802 18.5749 28.5498 18.4758 28.7479L17.6831 30.3333L16.9759 30.5101M27.2164 15.6347C25.3896 15.4814 23.5546 15.8149 21.8976 16.5992C20.2405 17.3834 18.8202 18.5918 17.7806 20.1019C16.741 21.6119 16.119 23.3699 15.9777 25.1977C15.8364 27.0255 16.1808 28.8583 16.9759 30.5101M27.2164 15.6347C29.028 15.7858 30.7683 16.4102 32.2639 17.4435C33.7595 18.4769 34.9581 19.8842 35.7402 21.5252C36.5223 23.1661 36.8607 24.9835 36.7216 26.796C36.5824 28.6085 35.9706 30.3529 34.9471 31.8552L34.7426 31.2439C34.5699 30.7262 34.2387 30.276 33.7959 29.9571C33.3531 29.6381 32.8212 29.4665 32.2755 29.4667H31.5498L31.1754 29.0923C30.9873 28.9039 30.7571 28.7629 30.5039 28.681C30.2506 28.5991 29.9815 28.5785 29.7187 28.6211C29.456 28.6637 29.2071 28.7681 28.9926 28.9257C28.7781 29.0834 28.6042 29.2898 28.4852 29.5279L28.4436 29.6123C28.3302 29.8395 28.1707 30.0406 27.9753 30.203C27.78 30.3653 27.553 30.4852 27.3089 30.5552L26.1649 30.8811C25.5293 31.0625 25.1318 31.6923 25.2404 32.3452L25.3248 32.8513C25.4172 33.399 25.891 33.8 26.4457 33.8C27.4233 33.8 28.2923 34.4263 28.6008 35.3542L28.8492 36.0972M16.9759 30.5101C18.0118 32.6639 19.7578 34.3951 21.9202 35.4127C24.0826 36.4302 26.5295 36.672 28.8492 36.0972M28.8492 36.0972C31.3336 35.4809 33.504 33.9712 34.946 31.8564M30.6831 22.5333C30.6831 23.5687 30.229 24.4978 29.5091 25.1333" stroke="#8F8FA7" stroke-width="1.73333" stroke-linecap="round" stroke-linejoin="round"/>
</svg>
