<svg width="40" height="40" viewBox="0 0 40 40" fill="none" xmlns="http://www.w3.org/2000/svg">
<rect width="40" height="40" rx="20" fill="#FFE9D3" fill-opacity="0.5"/>
<g clip-path="url(#clip0_0_229)">
<path d="M26.1211 12.6289C24.9844 11.4922 23.1406 11.4922 22.0039 12.6289L14.5039 20.1289C12.6758 21.957 12.6758 24.918 14.5039 26.7461C16.332 28.5742 19.293 28.5742 21.1211 26.7461L27.0586 20.8086C27.3008 20.5664 27.6992 20.5664 27.9414 20.8086C28.1836 21.0508 28.1836 21.4492 27.9414 21.6914L22.0039 27.6289C19.6875 29.9453 15.9336 29.9453 13.6211 27.6289C11.3086 25.3125 11.3047 21.5625 13.6211 19.2461L21.1211 11.7461C22.7461 10.1211 25.3789 10.1211 27.0039 11.7461C28.6289 13.3711 28.6289 16.0039 27.0039 17.6289L19.8242 24.8086C18.7227 25.9102 16.9102 25.8086 15.9336 24.5938C15.1016 23.5547 15.1836 22.0547 16.125 21.1133L22.0586 15.1836C22.3008 14.9414 22.6992 14.9414 22.9414 15.1836C23.1836 15.4258 23.1836 15.8242 22.9414 16.0664L17.0117 21.9961C16.5195 22.4883 16.4766 23.2695 16.9102 23.8125C17.418 24.4453 18.3633 24.5 18.9375 23.9258L26.1211 16.7461C27.2578 15.6094 27.2578 13.7656 26.1211 12.6289Z" fill="#D9AD81"/>
</g>
<defs>
<clipPath id="clip0_0_229">
<rect width="17.5" height="20" fill="white" transform="translate(11.25 10)"/>
</clipPath>
</defs>
</svg>
